<svg width="333" height="384" viewBox="0 0 333 384" fill="none" xmlns="http://www.w3.org/2000/svg">
<g filter="url(#filter0_d_137_156)">
<path d="M8.58965 124.68L8.5933 125.002L8.91332 125.035C17.1938 125.9 21.3497 126.266 29.6457 126.782L30.0355 126.807L30.0292 126.416L29.2274 76.0382C38.5985 76.337 43.4688 76.4311 52.8373 76.4446C53.2014 93.4201 53.5685 110.399 53.9385 127.38L53.9462 127.73L54.2959 127.734C62.5777 127.818 66.7208 127.771 74.9811 127.452L75.3375 127.438L75.3282 127.082C74.3056 87.8673 73.292 48.656 72.2874 9.44769L72.2783 9.09175L71.9222 9.09578L51.7635 9.32437L51.3986 9.32851L51.4065 9.69339C51.7641 26.1067 52.1158 42.5138 52.4615 58.9149C43.1358 58.9288 38.2901 58.8805 28.9467 58.6714L28.1722 9.93267L28.1665 9.57318L27.807 9.57725L7.64825 9.80584L7.2871 9.80993L7.29119 10.1711L8.58965 124.68Z" fill="#2CC9CF" stroke="black" stroke-width="0.722352"/>
<path d="M110.694 125.25L110.964 125.212L111.001 124.942C112.076 117.142 112.749 112.273 113.618 105.985C113.9 103.942 114.203 101.749 114.548 99.2581C122.993 98.2162 127.35 97.5659 135.701 96.0626C137.742 105.304 138.787 109.993 140.843 119.152L140.923 119.511L141.28 119.424C149.472 117.433 153.568 116.229 161.5 113.697L161.824 113.593L161.74 113.263C152.931 78.7702 144.413 44.1987 136.186 9.54874L136.119 9.26705L135.829 9.27103L108.835 9.64284L108.531 9.64703L108.484 9.94754C102.307 48.9867 96.0833 88.0358 89.8117 127.095L89.7388 127.549L90.1975 127.512C98.4187 126.846 102.523 126.395 110.694 125.25ZM116.789 81.5939C118.875 66.4097 120.96 51.2282 123.046 36.0495C126.089 50.6046 129.183 65.1338 132.327 79.6371C126.195 80.5141 122.925 80.9256 116.789 81.5939Z" fill="#2CC9CF" stroke="black" stroke-width="0.722352"/>
<path d="M186.576 100.829L186.577 100.829C192.51 103.489 200.149 103.268 209.42 100.704C218.694 98.1392 226.239 94.4383 231.963 89.4762C237.69 84.5115 240.547 79.1837 240.386 73.0663C240.269 68.2606 240.206 65.8393 240.082 61.0607L240.079 60.951L240.068 60.5555L239.675 60.6017C231.816 61.5269 227.886 62.0883 220.032 63.3138L219.718 63.3627L219.726 63.6798C219.855 68.7463 219.92 71.2804 220.058 76.3365C220.067 77.577 219.81 78.8028 219.305 79.9222C218.8 81.0425 218.06 82.0262 217.143 82.8006L217.143 82.8004L217.135 82.8083C214.833 84.8829 212.059 86.292 209.085 86.8993L209.085 86.8992L209.075 86.9015C205.74 87.6807 203.065 87.5575 201.004 86.5181L201.004 86.518L200.996 86.5142C200.028 86.0554 199.21 85.303 198.646 84.3501C198.083 83.397 197.802 82.288 197.84 81.1648L197.841 81.1535L197.84 81.1422L196.353 28.8254L196.353 28.8254L196.353 28.8174C196.29 27.58 196.523 26.3466 197.028 25.2297C197.534 24.1129 198.297 23.1488 199.245 22.4237C201.59 20.6455 204.407 19.6904 207.297 19.6909L207.313 19.6909L207.33 19.6893C210.18 19.4242 213.042 20.0769 215.534 21.5627L215.534 21.5627L215.538 21.565C216.497 22.1201 217.3 22.9343 217.864 23.9258C218.427 24.9174 218.731 26.0497 218.741 27.2064L218.741 27.2126C218.795 29.2636 218.835 30.811 218.875 32.3516C218.915 33.9281 218.955 35.4975 219.011 37.5918L219.021 37.9765L219.404 37.942C227.276 37.2334 231.22 36.9072 239.093 36.3675L239.438 36.3439L239.429 35.9979L239.174 26.0794L238.813 26.0878L239.174 26.0785L239.174 26.0788C239.031 19.9458 235.934 15.1367 229.902 11.4454C223.882 7.761 216.193 5.86633 206.761 5.97328C197.33 6.08022 189.635 8.20545 183.883 12.7091C178.124 17.2184 175.324 23.2448 175.541 30.4168L175.541 30.4171L177.261 85.8759L177.261 85.8775C177.387 89.4541 178.22 92.5226 179.777 95.0364C181.335 97.5526 183.606 99.4928 186.576 100.829Z" fill="#2CC9CF" stroke="black" stroke-width="0.722352"/>
<path d="M275.247 39.206L274.52 7.13061L274.511 6.7736L274.154 6.77765L254.013 7.00603L253.648 7.01018L253.657 7.37598L255.664 89.8198L255.673 90.215L256.066 90.1698C262.689 89.408 269.348 89.0416 276.011 89.0725L276.383 89.0743L276.374 88.703C276.147 78.9032 276.038 73.9857 275.821 64.2392L276.134 63.8567C278.723 60.6917 280.165 58.9283 282.777 55.7918C290.099 67.4505 297.228 79.1938 304.027 91.1687L304.113 91.3204L304.286 91.3473C311.461 92.4638 318.53 94.2438 325.408 96.6668L326.256 96.9654L325.851 96.1632C316.45 77.5619 306.25 59.6878 295.248 42.096C304.597 30.5375 313.913 18.925 322.721 6.90821L323.144 6.33161L322.429 6.33352C313.759 6.35672 309.424 6.40587 300.766 6.50405L300.765 6.50406L300.589 6.50605L300.482 6.64532C293.788 15.3674 287.039 24.044 280.29 32.7207C278.609 34.8822 276.928 37.0437 275.247 39.206Z" fill="#2CC9CF" stroke="black" stroke-width="0.722352"/>
<path d="M8.04797 152.201L7.64692 152.163L7.65253 152.566L7.84559 166.438L7.85026 166.773L8.18522 166.793C18.7392 167.423 29.3215 167.718 39.932 167.68L40.4219 241.473L40.425 241.945L40.8798 241.819C50.4881 239.148 60.0256 236.685 69.7437 234.483L70.0253 234.419L70.025 234.131C70.0015 211.666 69.9723 189.226 69.9375 166.811C80.5096 166.222 91.0678 165.428 101.612 164.429L101.943 164.397L101.939 164.065L101.939 164.039L101.938 164.013L101.938 163.987L101.938 163.961L101.938 163.935L101.937 163.909L101.937 163.884L101.937 163.858L101.936 163.832L101.936 163.807L101.936 163.781L101.936 163.756L101.935 163.73L101.935 163.705L101.935 163.68L101.934 163.654L101.934 163.629L101.934 163.604L101.934 163.579L101.933 163.554L101.933 163.528L101.933 163.503L101.932 163.478L101.932 163.454L101.932 163.429L101.932 163.404L101.931 163.379L101.931 163.354L101.931 163.33L101.93 163.305L101.93 163.28L101.93 163.256L101.93 163.231L101.929 163.207L101.929 163.182L101.929 163.158L101.928 163.134L101.928 163.109L101.928 163.085L101.928 163.061L101.927 163.037L101.927 163.013L101.927 162.988L101.927 162.964L101.926 162.94L101.926 162.916L101.926 162.893L101.925 162.869L101.925 162.845L101.925 162.821L101.925 162.797L101.924 162.774L101.924 162.75L101.924 162.726L101.924 162.703L101.923 162.679L101.923 162.656L101.923 162.632L101.923 162.609L101.922 162.585L101.922 162.562L101.922 162.539L101.921 162.515L101.921 162.492L101.921 162.469L101.921 162.446L101.92 162.423L101.92 162.4L101.92 162.377L101.92 162.354L101.919 162.331L101.919 162.308L101.919 162.285L101.919 162.262L101.918 162.239L101.918 162.216L101.918 162.194L101.918 162.171L101.917 162.148L101.917 162.125L101.917 162.103L101.917 162.08L101.916 162.058L101.916 162.035L101.916 162.013L101.915 161.99L101.915 161.968L101.915 161.946L101.915 161.923L101.914 161.901L101.914 161.879L101.914 161.856L101.914 161.834L101.913 161.812L101.913 161.79L101.913 161.768L101.913 161.746L101.912 161.724L101.912 161.702L101.912 161.68L101.912 161.658L101.911 161.636L101.911 161.614L101.911 161.592L101.911 161.57L101.91 161.548L101.91 161.527L101.91 161.505L101.91 161.483L101.909 161.461L101.909 161.44L101.909 161.418L101.909 161.396L101.909 161.375L101.908 161.353L101.908 161.332L101.908 161.31L101.908 161.289L101.907 161.267L101.907 161.246L101.907 161.225L101.907 161.203L101.906 161.182L101.906 161.161L101.906 161.139L101.906 161.118L101.905 161.097L101.905 161.076L101.905 161.055L101.905 161.034L101.904 161.012L101.904 160.991L101.904 160.97L101.904 160.949L101.903 160.928L101.903 160.907L101.903 160.886L101.903 160.865L101.902 160.844L101.902 160.823L101.902 160.803L101.902 160.782L101.902 160.761L101.901 160.74L101.901 160.719L101.901 160.698L101.901 160.678L101.9 160.657L101.9 160.636L101.9 160.616L101.9 160.595L101.899 160.574L101.899 160.554L101.899 160.533L101.899 160.513L101.899 160.492L101.898 160.471L101.898 160.451L101.898 160.43L101.898 160.41L101.897 160.39L101.897 160.369L101.897 160.349L101.897 160.328L101.896 160.308L101.896 160.288L101.896 160.267L101.896 160.247L101.895 160.227L101.895 160.206L101.895 160.186L101.895 160.166L101.895 160.145L101.894 160.125L101.894 160.105L101.894 160.085L101.894 160.065L101.893 160.044L101.893 160.024L101.893 160.004L101.893 159.984L101.893 159.964L101.892 159.944L101.892 159.924L101.892 159.904L101.892 159.884L101.891 159.864L101.891 159.844L101.891 159.824L101.891 159.804L101.89 159.784L101.89 159.764L101.89 159.744L101.89 159.724L101.89 159.704L101.889 159.684L101.889 159.664L101.889 159.644L101.889 159.624L101.888 159.604L101.888 159.585L101.888 159.565L101.888 159.545L101.888 159.525L101.887 159.505L101.887 159.485L101.887 159.466L101.887 159.446L101.886 159.426L101.886 159.406L101.886 159.387L101.886 159.367L101.886 159.347L101.885 159.327L101.885 159.308L101.885 159.288L101.885 159.268L101.884 159.249L101.884 159.229L101.884 159.209L101.884 159.189L101.884 159.17L101.883 159.15L101.883 159.13L101.883 159.111L101.883 159.091L101.882 159.072L101.882 159.052L101.882 159.032L101.882 159.013L101.882 158.993L101.881 158.973L101.881 158.954L101.881 158.934L101.881 158.915L101.88 158.895L101.88 158.875L101.88 158.856L101.88 158.836L101.88 158.817L101.879 158.797L101.879 158.778L101.879 158.758L101.879 158.738L101.878 158.719L101.878 158.699L101.878 158.68L101.878 158.66L101.878 158.641L101.877 158.621L101.877 158.602L101.877 158.582L101.877 158.562L101.876 158.543L101.876 158.523L101.876 158.504L101.876 158.484L101.876 158.465L101.875 158.445L101.875 158.426L101.875 158.406L101.875 158.386L101.874 158.367L101.874 158.347L101.874 158.328L101.874 158.308L101.874 158.289L101.873 158.269L101.873 158.25L101.873 158.23L101.873 158.21L101.872 158.191L101.872 158.171L101.872 158.152L101.872 158.132L101.872 158.112L101.871 158.093L101.871 158.073L101.871 158.054L101.871 158.034L101.87 158.014L101.87 157.995L101.87 157.975L101.87 157.956L101.87 157.936L101.869 157.916L101.869 157.897L101.869 157.877L101.869 157.857L101.868 157.838L101.868 157.818L101.868 157.798L101.868 157.779L101.868 157.759L101.867 157.739L101.867 157.72L101.867 157.7L101.867 157.68L101.866 157.66L101.866 157.641L101.866 157.621L101.866 157.601L101.865 157.581L101.865 157.562L101.865 157.542L101.865 157.522L101.865 157.502L101.864 157.482L101.864 157.463L101.864 157.443L101.864 157.423L101.863 157.403L101.863 157.383L101.863 157.363L101.863 157.343L101.863 157.324L101.862 157.304L101.862 157.284L101.862 157.264L101.862 157.244L101.861 157.224L101.861 157.204L101.861 157.184L101.861 157.164L101.861 157.144L101.86 157.124L101.86 157.104L101.86 157.084L101.86 157.064L101.859 157.044L101.859 157.023L101.859 157.003L101.859 156.983L101.858 156.963L101.858 156.943L101.858 156.923L101.858 156.902L101.858 156.882L101.857 156.862L101.857 156.842L101.857 156.822L101.857 156.801L101.856 156.781L101.856 156.761L101.856 156.74L101.856 156.72L101.855 156.7L101.855 156.679L101.855 156.659L101.855 156.638L101.855 156.618L101.854 156.598L101.854 156.577L101.854 156.557L101.854 156.536L101.853 156.515L101.853 156.495L101.853 156.474L101.853 156.454L101.852 156.433L101.852 156.413L101.852 156.392L101.852 156.371L101.852 156.35L101.851 156.33L101.851 156.309L101.851 156.288L101.851 156.267L101.85 156.247L101.85 156.226L101.85 156.205L101.85 156.184L101.849 156.163L101.849 156.142L101.849 156.121L101.849 156.1L101.848 156.079L101.848 156.058L101.848 156.037L101.848 156.016L101.848 155.995L101.847 155.974L101.847 155.953L101.847 155.932L101.847 155.911L101.846 155.889L101.846 155.868L101.846 155.847L101.846 155.825L101.845 155.804L101.845 155.783L101.845 155.761L101.845 155.74L101.844 155.719L101.844 155.697L101.844 155.676L101.844 155.654L101.843 155.633L101.843 155.611L101.843 155.589L101.843 155.568L101.842 155.546L101.842 155.524L101.842 155.503L101.842 155.481L101.841 155.459L101.841 155.437L101.841 155.416L101.841 155.394L101.84 155.372L101.84 155.35L101.84 155.328L101.84 155.306L101.839 155.284L101.839 155.262L101.839 155.24L101.839 155.218L101.838 155.196L101.838 155.173L101.838 155.151L101.838 155.129L101.837 155.107L101.837 155.084L101.837 155.062L101.837 155.04L101.836 155.017L101.836 154.995L101.836 154.972L101.836 154.95L101.835 154.927L101.835 154.905L101.835 154.882L101.835 154.859L101.834 154.837L101.834 154.814L101.834 154.791L101.834 154.768L101.833 154.746L101.833 154.723L101.833 154.7L101.833 154.677L101.832 154.654L101.832 154.631L101.832 154.608L101.832 154.585L101.831 154.562L101.831 154.539L101.831 154.515L101.83 154.492L101.83 154.469L101.83 154.446L101.83 154.422L101.829 154.399L101.829 154.375L101.829 154.352L101.829 154.328L101.828 154.305L101.828 154.281L101.828 154.258L101.828 154.234L101.827 154.21L101.827 154.186L101.827 154.163L101.826 154.139L101.826 154.115L101.826 154.091L101.826 154.067L101.825 154.043L101.825 154.019L101.825 153.995L101.825 153.971L101.824 153.947L101.824 153.922L101.824 153.898L101.823 153.874L101.823 153.85L101.823 153.825L101.823 153.801L101.822 153.776L101.822 153.752L101.822 153.727L101.822 153.703L101.821 153.678L101.821 153.653L101.821 153.628L101.82 153.604L101.82 153.579L101.82 153.554L101.82 153.529L101.819 153.504L101.819 153.479L101.819 153.454L101.818 153.429L101.818 153.404L101.818 153.379L101.818 153.353L101.817 153.328L101.817 153.303L101.817 153.277L101.816 153.252L101.816 153.226L101.816 153.201L101.816 153.175L101.815 153.149L101.815 153.124L101.815 153.098L101.814 153.072L101.814 153.046L101.814 153.021L101.813 152.995L101.813 152.969L101.813 152.943L101.808 152.549L101.416 152.587C70.1639 155.662 39.3415 155.186 8.04797 152.201Z" fill="#D30D17" stroke="black" stroke-width="0.722352"/>
<path d="M124.806 233.169L124.811 233.469L125.106 233.519C134.851 235.182 144.437 237.09 154.152 239.297L154.603 239.399L154.593 238.937L153.778 197.477C164.757 197.493 175.739 197.519 186.723 197.553C187.165 214.084 187.604 230.619 188.04 247.156L188.048 247.436L188.321 247.499C197.85 249.673 207.359 251.659 217.001 253.428L217.44 253.509L217.427 253.063L213.771 124.5L213.758 124.044L213.317 124.161C203.922 126.662 194.556 129.313 185.21 132.114L184.945 132.194L184.952 132.47C185.376 148.465 185.803 164.457 186.233 180.446C180.761 180.858 175.293 181.286 169.825 181.713L169.746 181.72C164.318 182.144 158.891 182.568 153.464 182.977L152.673 142.909L152.664 142.448L152.219 142.568C142.711 145.123 133.341 147.293 123.718 149.279L123.425 149.339L123.43 149.639L124.806 233.169Z" fill="#D30D17" stroke="black" stroke-width="0.722352"/>
<path d="M244.321 117.774L243.995 117.815L244.005 118.144L248.304 256.115L248.316 256.469L248.67 256.465C264.409 256.263 277.785 254.384 290.185 249.79C302.587 245.196 313.993 237.895 325.8 226.874L325.916 226.765L325.915 226.606L325.747 211.861L325.739 211.137L325.166 211.579C310.203 223.096 295.705 230.226 277.564 233.709C277.058 220.466 276.554 207.223 276.053 193.98C289.482 192.256 302.742 189.306 315.681 185.163L315.939 185.08L315.932 184.81C315.817 180.208 315.738 177.241 315.641 173.593C315.6 172.063 315.556 170.412 315.505 168.471L315.494 168.054L315.083 168.125C301.774 170.423 288.665 172.304 275.275 173.527L273.838 135.757C290.966 135.427 307.538 135.989 324.498 138.486L324.916 138.547L324.911 138.124L324.744 123.398L324.741 123.131L324.485 123.055C297.518 115.101 272.023 114.283 244.321 117.774Z" fill="#D30D17" stroke="black" stroke-width="0.722352"/>
<path d="M8.79277 374.851L8.79688 375.213L9.15916 375.208L18.0676 375.079L18.4266 375.074L18.4236 374.715C18.2806 357.927 18.114 341.14 17.924 324.354C21.8882 323.893 24.0134 323.627 27.9106 323.137C28.0519 340.279 28.1991 357.424 28.3522 374.572L28.3554 374.934L28.7174 374.93L37.653 374.828L38.013 374.824L38.0101 374.464C37.6884 334.009 37.3697 293.56 37.0541 253.118L37.0504 252.645L36.5956 252.773C33.6328 253.602 31.866 254.087 29.3445 254.779C28.8039 254.928 28.2286 255.086 27.5993 255.258L27.3315 255.332L27.3339 255.61L27.7657 305.44C26.3982 305.657 25.2503 305.842 24.1722 306.016C22.1316 306.345 20.3407 306.634 17.7823 307.019C17.6454 290.818 17.4851 274.612 17.3012 258.4L17.2961 257.944L16.8533 258.053C13.2385 258.948 11.4242 259.371 7.78232 260.144L7.49276 260.205L7.49612 260.501L8.79277 374.851Z" fill="white" stroke="black" stroke-width="0.722352"/>
<path d="M53.4776 374.584L53.8131 374.58L53.834 374.245C54.407 365.044 54.9859 355.847 55.5707 346.652C55.9396 346.627 56.2909 346.603 56.6282 346.581C59.5139 346.386 61.3798 346.259 64.5233 346.07C65.2173 355.405 65.9054 364.725 66.5874 374.03L66.6122 374.369L66.9517 374.365L76.0482 374.262L76.4347 374.257L76.4041 373.872C73.0179 331.123 69.5334 288.381 65.9507 245.647L65.9164 245.238L65.5153 245.324C60.6416 246.366 58.2124 246.958 53.3792 248.206L53.1274 248.271L53.1092 248.531C50.1652 290.493 47.1881 332.416 44.1777 374.298L44.1495 374.689L44.542 374.685L53.4776 374.584ZM56.6766 327.435C57.6678 311.48 58.6566 295.519 59.6429 279.553C60.8364 295.305 62.0181 311.056 63.1879 326.808C60.6077 327.051 59.197 327.188 56.6766 327.435Z" fill="white" stroke="black" stroke-width="0.722352"/>
<path d="M81.6966 344.648L81.6966 344.649C81.7237 353.889 83.0391 361.4 85.6645 367.16C88.2827 372.919 91.7452 375.924 96.1119 375.874C100.476 375.825 103.958 372.708 106.605 366.902C109.258 361.084 110.643 353.551 110.727 344.302C110.757 340.964 110.781 338.368 110.805 335.844C110.834 332.731 110.862 329.729 110.899 325.582L110.902 325.228L110.549 325.217C107.007 325.107 105.136 325.053 101.556 325.028L101.194 325.025L101.193 325.388C101.177 329.394 101.163 332.332 101.15 335.326C101.138 337.981 101.126 340.681 101.111 344.21L101.111 344.21L101.111 344.223C101.205 347.261 100.707 350.287 99.649 353.115C98.693 355.33 97.5377 356.295 96.2222 356.31C94.9207 356.32 93.7723 355.388 92.8316 353.209C91.788 350.39 91.3085 347.375 91.4235 344.353L91.4237 344.353L91.4237 344.339C91.4279 320.007 91.4349 295.676 91.445 271.344L91.4453 271.344L91.4448 271.33C91.3316 268.272 91.8327 265.224 92.915 262.386C93.8876 260.144 95.0965 259.136 96.4613 259.112C97.8191 259.089 99.0229 260.061 99.9931 262.271C101.076 265.097 101.569 268.135 101.436 271.178L101.436 271.178L101.436 271.192C101.422 274.281 101.413 276.598 101.403 278.914C101.394 281.23 101.384 283.547 101.37 286.635L101.368 286.992L101.725 286.998C105.363 287.06 107.288 287.178 110.864 287.41L111.245 287.434L111.248 287.053L111.387 271.703C111.47 262.454 110.201 254.721 107.422 248.734C104.651 242.766 101.035 239.516 96.406 239.588C91.7791 239.66 88.1948 243.066 85.5164 249.055C82.8302 255.061 81.5107 262.81 81.5349 272.059C81.5349 272.059 81.5349 272.059 81.5349 272.059L81.6966 344.648Z" fill="white" stroke="black" stroke-width="0.722352"/>
<path d="M140.468 247.062C136.44 262.681 132.478 278.31 128.582 293.95C128.779 277.621 128.984 261.29 129.197 244.955L129.201 244.646L128.896 244.594C125.248 243.978 123.417 243.697 119.753 243.203L119.347 243.149L119.343 243.557L117.947 373.445L117.943 373.814L118.313 373.81L127.248 373.709L127.601 373.705L127.605 373.352C127.751 360.46 127.902 347.572 128.059 334.687C129.332 329.707 130.034 326.96 131.197 322.486C133.979 339.433 136.772 356.378 139.577 373.319L139.627 373.625L139.937 373.621L149.543 373.512L149.967 373.508L149.895 373.09C145.716 348.85 141.572 324.601 137.464 300.341C141.852 283.308 146.329 266.302 150.895 249.322L150.993 248.958L150.625 248.876C146.735 248.009 144.789 247.59 140.89 246.798L140.554 246.73L140.468 247.062Z" fill="white" stroke="black" stroke-width="0.722352"/>
<path d="M162.287 373.425L162.614 373.421L162.643 373.096C163.419 364.334 164.202 355.573 164.991 346.811L173.932 347.242C174.236 352.614 174.463 356.602 174.695 360.668C174.905 364.362 175.119 368.121 175.398 373.044L175.418 373.389L175.763 373.385L184.859 373.282L185.241 373.277L185.216 372.897C182.61 333.782 180.045 294.657 177.522 255.523L177.505 255.257L177.246 255.195L165.22 252.308L164.818 252.212L164.776 252.623C160.751 292.791 156.822 332.96 152.988 373.131L152.949 373.531L153.351 373.526L162.287 373.425ZM166.528 328.702C167.861 313.963 169.197 299.231 170.535 284.506C171.355 299.418 172.181 314.333 173.015 329.249L166.528 328.702Z" fill="white" stroke="black" stroke-width="0.722352"/>
<path d="M187.562 257.592L187.131 257.495L187.122 257.937L186.79 274.387L186.784 274.69L187.082 274.749C190.903 275.501 192.865 275.883 196.591 276.564L194.743 372.825L194.736 373.198L195.108 373.194L204.044 373.092L204.394 373.088L204.401 372.738C205.028 341.234 205.653 309.73 206.274 278.226C206.803 278.309 207.296 278.387 207.763 278.461C210.561 278.903 212.467 279.204 215.719 279.656L216.122 279.712L216.13 279.306C216.193 276.194 216.242 273.86 216.292 271.527L216.292 271.525C216.341 269.192 216.391 266.859 216.454 263.748L216.46 263.439L216.156 263.385C206.554 261.664 197.091 259.726 187.562 257.592Z" fill="white" stroke="black" stroke-width="0.722352"/>
<path d="M220.38 372.571L220.372 372.943L220.744 372.94L229.716 372.866L230.066 372.863L230.074 372.513C230.42 357.148 230.763 341.781 231.103 326.41C235.018 326.554 237.139 326.613 241.063 326.665L240.519 349.343L239.968 372.385L239.959 372.759L240.333 372.755L249.268 372.654L249.617 372.65L249.625 372.302C250.513 337.133 251.407 301.962 252.307 266.787L252.317 266.414L251.943 266.417C248.304 266.449 246.496 266.413 242.871 266.257L242.503 266.242L242.495 266.61C242.148 281.35 241.795 296.088 241.436 310.823C237.476 310.737 235.352 310.658 231.429 310.446C231.763 295.583 232.093 280.72 232.422 265.857L232.429 265.522L232.095 265.489C228.459 265.137 226.674 264.923 223.098 264.429L222.696 264.374L222.688 264.78C221.934 300.71 221.164 336.64 220.38 372.571Z" fill="white" stroke="black" stroke-width="0.722352"/>
<path d="M262.035 366.777L262.036 366.778C264.598 371.504 267.993 373.934 272.463 373.884C276.927 373.833 280.576 371.302 283.413 366.305C286.247 361.314 287.779 354.709 288.047 346.665L288.047 346.664L290.044 286.301L290.044 286.301C290.302 278.269 289.244 272.183 286.699 267.937C285.654 265.977 284.036 264.416 282.08 263.49C280.123 262.564 277.934 262.322 275.837 262.801C271.296 263.59 267.585 266.436 264.708 271.454C261.83 276.471 260.31 282.756 260.101 290.45L258.53 348.16C258.294 355.853 259.485 362.038 262.035 366.777ZM276.732 355.135L276.732 355.135L276.729 355.142C276.391 355.911 275.862 356.566 275.199 357.04C274.538 357.513 273.769 357.787 272.973 357.836C272.227 357.862 271.489 357.651 270.856 357.227C270.222 356.802 269.722 356.183 269.427 355.449L269.421 355.435L269.414 355.422C268.548 353.698 268.144 351.201 268.239 347.873C268.812 328.523 269.382 309.144 269.948 289.738L269.948 289.73L269.948 289.722C269.909 287.027 270.48 284.363 271.612 281.948L271.612 281.948L271.614 281.942C271.978 281.132 272.523 280.428 273.2 279.889C273.877 279.35 274.666 278.993 275.501 278.846L275.501 278.846L275.508 278.844C276.219 278.704 276.955 278.812 277.603 279.154C278.253 279.496 278.78 280.055 279.103 280.747L279.108 280.758L279.114 280.77C279.997 282.362 280.403 284.831 280.291 288.21L280.291 288.21L278.396 347.315L278.396 347.323L278.396 347.331C278.431 350.035 277.86 352.708 276.732 355.135Z" fill="white" stroke="black" stroke-width="0.722352"/>
<path d="M298.839 257.045L298.653 257.144L298.647 257.355C297.607 295.447 296.576 333.53 295.554 371.604L295.544 371.982L295.923 371.975L304.67 371.8L305.017 371.794L305.024 371.446C305.452 347.685 305.882 323.918 306.316 300.146C309.453 323.881 312.705 347.593 316.072 371.282L316.117 371.599L316.438 371.592L325.837 371.382L326.194 371.374L326.19 371.017L324.678 237.661L324.668 236.825L324.066 237.405C321.259 240.108 319.857 241.387 317.002 243.904L316.88 244.012L316.88 244.175C316.842 270.713 316.806 297.249 316.773 323.783C313.759 299.8 310.87 275.805 308.107 251.798L308.035 251.176L307.532 251.55C304.768 253.605 301.862 255.442 298.839 257.045Z" fill="white" stroke="black" stroke-width="0.722352"/>
</g>
<defs>
<filter id="filter0_d_137_156" x="0.902272" y="0.550955" width="332.102" height="382.668" filterUnits="userSpaceOnUse" color-interpolation-filters="sRGB">
<feFlood flood-opacity="0" result="BackgroundImageFix"/>
<feColorMatrix in="SourceAlpha" type="matrix" values="0 0 0 0 0 0 0 0 0 0 0 0 0 0 0 0 0 0 127 0" result="hardAlpha"/>
<feOffset dy="0.963136"/>
<feGaussianBlur stdDeviation="3.0098"/>
<feComposite in2="hardAlpha" operator="out"/>
<feColorMatrix type="matrix" values="0 0 0 0 0 0 0 0 0 0.836735 0 0 0 0 1 0 0 0 0.43 0"/>
<feBlend mode="normal" in2="BackgroundImageFix" result="effect1_dropShadow_137_156"/>
<feBlend mode="normal" in="SourceGraphic" in2="effect1_dropShadow_137_156" result="shape"/>
</filter>
</defs>
</svg>
